<?xml version="1.0" encoding="utf-8"?>
<svg width="349" height="423" viewBox="0 0 349 423" xmlns="http://www.w3.org/2000/svg">
<rect id="frame" x="0" y="0" width="349" height="423" fill="#f7f7f7" stroke="none" stroke-width="0"/>

<!-- Association PREND SOIN DE -->
<g class="page_0_PCtvcnf7 diagram_page" visibility="visible">
	<line x1="69" y1="220" x2="210" y2="51" stroke="#d6604d" stroke-width="2"/>
	<text x="134" y="158.91" fill="#2166ac" font-family="Verdana" font-size="12">1,1</text>
	<line x1="69" y1="51" x2="210" y2="51" stroke="#d6604d" stroke-width="2"/>
	<text x="126" y="68" fill="#2166ac" font-family="Verdana" font-size="12">0,N</text>
	<g>
		<path d="M253 26 a14 14 90 0 1 14 14 V51 h-114 V40 a14 14 90 0 1 14 -14" fill="#f4a582" stroke="#f4a582" stroke-width="0"/>
		<path d="M267 51 v11 a14 14 90 0 1 -14 14 H167 a14 14 90 0 1 -14 -14 V51 H114" fill="#fddbc7" stroke="#fddbc7" stroke-width="0"/>
		<rect x="153" y="26" width="114" height="50" fill="none" rx="14" stroke="#d6604d" stroke-width="2"/>
		<line x1="153" y1="51" x2="267" y2="51" stroke="#d6604d" stroke-width="1"/>
		<text x="161" y="43.75" fill="#000" font-family="Verdana" font-size="12">PREND SOIN DE</text>
	</g>
</g>

<!-- Association MANGE -->
<g class="page_0_PCtvcnf7 diagram_page" visibility="visible">
	<line x1="306" y1="220" x2="210" y2="220" stroke="#d6604d" stroke-width="2"/>
	<text x="245" y="237" fill="#2166ac" font-family="Verdana" font-size="12">0,N</text>
	<line x1="69" y1="220" x2="210" y2="220" stroke="#d6604d" stroke-width="2"/>
	<text x="134" y="237" fill="#2166ac" font-family="Verdana" font-size="12">1,N</text>
	<g>
		<path d="M226 195 a14 14 90 0 1 14 14 V220 h-60 V209 a14 14 90 0 1 14 -14" fill="#f4a582" stroke="#f4a582" stroke-width="0"/>
		<path d="M240 220 v11 a14 14 90 0 1 -14 14 H194 a14 14 90 0 1 -14 -14 V220 H60" fill="#fddbc7" stroke="#fddbc7" stroke-width="0"/>
		<rect x="180" y="195" width="60" height="50" fill="none" rx="14" stroke="#d6604d" stroke-width="2"/>
		<line x1="180" y1="220" x2="240" y2="220" stroke="#d6604d" stroke-width="1"/>
		<text x="188" y="212.75" fill="#000" font-family="Verdana" font-size="12">MANGE</text>
	</g>
</g>

<!-- Association PREND -->
<g class="page_0_PCtvcnf7 diagram_page" visibility="visible">
	<line x1="210" y1="372" x2="69" y2="372" stroke="#d6604d" stroke-width="2"/>
	<text x="138" y="389" fill="#2166ac" font-family="Verdana" font-size="12">0,1</text>
	<line x1="69" y1="220" x2="69" y2="372" stroke="#d6604d" stroke-width="2"/>
	<text x="74" y="339" fill="#2166ac" font-family="Verdana" font-size="12">1,1</text>
	<g>
		<path d="M83 347 a14 14 90 0 1 14 14 V372 h-56 V361 a14 14 90 0 1 14 -14" fill="#f4a582" stroke="#f4a582" stroke-width="0"/>
		<path d="M97 372 v11 a14 14 90 0 1 -14 14 H55 a14 14 90 0 1 -14 -14 V372 H56" fill="#fddbc7" stroke="#fddbc7" stroke-width="0"/>
		<rect x="41" y="347" width="56" height="50" fill="none" rx="14" stroke="#d6604d" stroke-width="2"/>
		<line x1="41" y1="372" x2="97" y2="372" stroke="#d6604d" stroke-width="1"/>
		<text x="48" y="364.75" fill="#000" font-family="Verdana" font-size="12">PREND</text>
	</g>
</g>

<!-- Entity zookeeper -->
<g class="page_0_PCtvcnf7 diagram_page" visibility="visible">
	<g>
		<rect x="17" y="9" width="104" height="25" fill="#92c5de" stroke="#92c5de" stroke-width="0" opacity="1"/>
		<rect x="17" y="34" width="104" height="59" fill="#d1e5f0" stroke="#d1e5f0" stroke-width="0" opacity="1"/>
		<rect x="17" y="9" width="104" height="84" fill="none" stroke="#4393c3" stroke-width="2" opacity="1"/>
		<line x1="17" y1="34" x2="121" y2="34" stroke="#4393c3" stroke-width="1"/>
	</g>
	<text x="38" y="26.75" fill="#000" font-family="Verdana" font-size="12">zookeeper</text>
	<text x="22" y="51.8" fill="#000" font-family="Verdana" font-size="12">codeZookeeper</text>
	<line x1="22" y1="54" x2="115" y2="54" stroke="#000" stroke-width="1"/>
	<text x="22" y="68.8" fill="#000" font-family="Verdana" font-size="12">prénom</text>
	<text x="22" y="85.8" fill="#000" font-family="Verdana" font-size="12">nom</text>
</g>

<!-- Entity animal -->
<g class="page_0_PCtvcnf7 diagram_page" visibility="visible">
	<g>
		<rect x="9" y="118" width="120" height="25" fill="#92c5de" stroke="#92c5de" stroke-width="0" opacity="1"/>
		<rect x="9" y="143" width="120" height="179" fill="#d1e5f0" stroke="#d1e5f0" stroke-width="0" opacity="1"/>
		<rect x="9" y="118" width="120" height="204" fill="none" stroke="#4393c3" stroke-width="2" opacity="1"/>
		<line x1="9" y1="143" x2="129" y2="143" stroke="#4393c3" stroke-width="1"/>
	</g>
	<text x="49" y="135.75" fill="#000" font-family="Verdana" font-size="12">animal</text>
	<text x="14" y="160.8" fill="#000" font-family="Verdana" font-size="12">codeAnimal</text>
	<line x1="14" y1="163" x2="84" y2="163" stroke="#000" stroke-width="1"/>
	<text x="14" y="177.8" fill="#000" font-family="Verdana" font-size="12">nom</text>
	<text x="14" y="194.8" fill="#000" font-family="Verdana" font-size="12">classe</text>
	<text x="14" y="211.8" fill="#000" font-family="Verdana" font-size="12">type</text>
	<text x="14" y="228.8" fill="#000" font-family="Verdana" font-size="12">age</text>
	<text x="14" y="245.8" fill="#000" font-family="Verdana" font-size="12">date de naissance</text>
	<text x="14" y="262.8" fill="#000" font-family="Verdana" font-size="12">genre</text>
	<text x="14" y="279.8" fill="#000" font-family="Verdana" font-size="12">coût de maintient</text>
	<text x="14" y="296.8" fill="#000" font-family="Verdana" font-size="12">visiteurs par mois</text>
	<text x="14" y="313.8" fill="#000" font-family="Verdana" font-size="12">poids</text>
</g>

<!-- Entity food -->
<g class="page_0_PCtvcnf7 diagram_page" visibility="visible">
	<g>
		<rect x="272" y="178" width="68" height="25" fill="#92c5de" stroke="#92c5de" stroke-width="0" opacity="1"/>
		<rect x="272" y="203" width="68" height="59" fill="#d1e5f0" stroke="#d1e5f0" stroke-width="0" opacity="1"/>
		<rect x="272" y="178" width="68" height="84" fill="none" stroke="#4393c3" stroke-width="2" opacity="1"/>
		<line x1="272" y1="203" x2="340" y2="203" stroke="#4393c3" stroke-width="1"/>
	</g>
	<text x="293" y="195.75" fill="#000" font-family="Verdana" font-size="12">food</text>
	<text x="277" y="220.8" fill="#000" font-family="Verdana" font-size="12">codeFood</text>
	<line x1="277" y1="223" x2="335" y2="223" stroke="#000" stroke-width="1"/>
	<text x="277" y="237.8" fill="#000" font-family="Verdana" font-size="12">repas</text>
	<text x="277" y="254.8" fill="#000" font-family="Verdana" font-size="12">quantité</text>
</g>

<!-- Entity medicine -->
<g class="page_0_PCtvcnf7 diagram_page" visibility="visible">
	<g>
		<rect x="164" y="330" width="92" height="25" fill="#92c5de" stroke="#92c5de" stroke-width="0" opacity="1"/>
		<rect x="164" y="355" width="92" height="59" fill="#d1e5f0" stroke="#d1e5f0" stroke-width="0" opacity="1"/>
		<rect x="164" y="330" width="92" height="84" fill="none" stroke="#4393c3" stroke-width="2" opacity="1"/>
		<line x1="164" y1="355" x2="256" y2="355" stroke="#4393c3" stroke-width="1"/>
	</g>
	<text x="183" y="347.75" fill="#000" font-family="Verdana" font-size="12">medicine</text>
	<text x="169" y="372.8" fill="#000" font-family="Verdana" font-size="12">codeMedicine</text>
	<line x1="169" y1="375" x2="251" y2="375" stroke="#000" stroke-width="1"/>
	<text x="169" y="389.8" fill="#000" font-family="Verdana" font-size="12">solution</text>
	<text x="169" y="406.8" fill="#000" font-family="Verdana" font-size="12">dose</text>
</g>
</svg>